<?xml version="1.0" encoding="UTF-8"?>
<svg width="64px" height="64px" viewBox="0 0 64 64" version="1.1" xmlns="http://www.w3.org/2000/svg" xmlns:xlink="http://www.w3.org/1999/xlink">
    <title>64x64 copy 2</title>
    <defs>
        <polygon id="path-1" points="0 0 64 0 64 63.9998781 0 63.9998781"></polygon>
    </defs>
    <g id="64x64-copy-2" stroke="none" stroke-width="1" fill="none" fill-rule="evenodd">
        <g id="Group-6">
            <g id="Group-3">
                <mask id="mask-2" fill="white">
                    <use xlink:href="#path-1"></use>
                </mask>
                <g id="Clip-2"></g>
                <path d="M64,31.9998781 C64,49.673021 49.6731429,63.9998781 32,63.9998781 C14.3268571,63.9998781 0,49.673021 0,31.9998781 C0,14.3267352 14.3268571,-0.000121904762 32,-0.000121904762 C49.6731429,-0.000121904762 64,14.3267352 64,31.9998781" id="Fill-1" fill="#000000" mask="url(#mask-2)"></path>
            </g>
            <path d="M55.7940419,41.9487086 L45.5491657,31.7032229 L55.7940419,21.4589562 C57.0466133,20.2063848 57.0466133,18.1577752 55.7940419,16.9052038 L46.6877562,7.7989181 C45.4351848,6.54634667 43.3865752,6.54634667 42.1340038,7.7989181 L31.8891276,18.0431848 L21.6436419,7.7989181 C20.39168,6.54634667 18.342461,6.54634667 17.090499,7.7989181 L7.98360381,16.9052038 C6.7316419,18.1577752 6.7316419,20.2063848 7.98360381,21.4589562 L18.2290895,31.7032229 L7.98360381,41.9487086 C6.7316419,43.20128 6.7316419,45.2498895 7.98360381,46.502461 L17.090499,55.6087467 C18.342461,56.8613181 20.39168,56.8613181 21.6436419,55.6087467 L31.8891276,45.3638705 L42.1340038,55.6087467 C43.3865752,56.8613181 45.4351848,56.8613181 46.6877562,55.6087467 L55.7940419,46.502461 C57.0466133,45.2498895 57.0466133,43.20128 55.7940419,41.9487086" id="Fill-4" fill="#FF003A"></path>
        </g>
    </g>
</svg>